<svg xmlns="http://www.w3.org/2000/svg" viewBox="0 0 1800 1100" role="img" aria-labelledby="title desc">
  <title id="title">zFeder addon interface preview</title>
  <desc id="desc">A stylized interface preview with controller, HUD, and arena panels.</desc>
  <rect width="1800" height="1100" fill="#111314"/>
  <path d="M0 160h1800M0 360h1800M0 560h1800M0 760h1800M0 960h1800M200 0v1100M420 0v1100M640 0v1100M860 0v1100M1080 0v1100M1300 0v1100M1520 0v1100" stroke="#2c3134" stroke-width="2" opacity=".5"/>
  <circle cx="1390" cy="520" r="430" fill="#008c8c" opacity=".12"/>
  <circle cx="1490" cy="260" r="230" fill="#b8f33f" opacity=".1"/>
  <g transform="translate(980 180)">
    <rect x="0" y="0" width="520" height="430" rx="22" fill="#f5f7f3" opacity=".96"/>
    <rect x="28" y="30" width="464" height="56" rx="10" fill="#111314"/>
    <circle cx="58" cy="58" r="9" fill="#c95555"/>
    <circle cx="88" cy="58" r="9" fill="#d6a13a"/>
    <circle cx="118" cy="58" r="9" fill="#b8f33f"/>
    <text x="152" y="64" font-family="Arial, Helvetica, sans-serif" font-size="20" font-weight="700" fill="#f5f7f3">Controller Camera</text>
    <text x="32" y="138" font-family="Arial, Helvetica, sans-serif" font-size="22" font-weight="700" fill="#111314">Sensitivity profile</text>
    <rect x="32" y="172" width="460" height="18" rx="9" fill="#d9ded8"/>
    <rect x="32" y="172" width="312" height="18" rx="9" fill="#008c8c"/>
    <rect x="32" y="230" width="460" height="18" rx="9" fill="#d9ded8"/>
    <rect x="32" y="230" width="312" height="18" rx="9" fill="#3f6fb5"/>
    <g transform="translate(32 302)">
      <rect width="142" height="58" rx="12" fill="#111314"/>
      <text x="24" y="37" font-family="Arial, Helvetica, sans-serif" font-size="19" font-weight="700" fill="#b8f33f">2.15</text>
    </g>
    <g transform="translate(194 302)">
      <rect width="142" height="58" rx="12" fill="#eef1f4"/>
      <text x="22" y="37" font-family="Arial, Helvetica, sans-serif" font-size="19" font-weight="700" fill="#111314">X / Y</text>
    </g>
    <g transform="translate(356 302)">
      <rect width="136" height="58" rx="12" fill="#eef1f4"/>
      <text x="22" y="37" font-family="Arial, Helvetica, sans-serif" font-size="19" font-weight="700" fill="#111314">CVars</text>
    </g>
  </g>
  <g transform="translate(1160 690)">
    <rect x="0" y="0" width="430" height="210" rx="20" fill="#1d2023" stroke="#3d4449" stroke-width="2"/>
    <text x="28" y="46" font-family="Arial, Helvetica, sans-serif" font-size="22" font-weight="700" fill="#f5f7f3">Arena practice map</text>
    <circle cx="92" cy="118" r="18" fill="#b8f33f"/>
    <circle cx="208" cy="88" r="18" fill="#d6a13a"/>
    <circle cx="326" cy="132" r="18" fill="#c95555"/>
    <path d="M92 118L208 88L326 132" fill="none" stroke="#f5f7f3" stroke-width="4" stroke-dasharray="10 10" opacity=".55"/>
    <text x="28" y="176" font-family="Arial, Helvetica, sans-serif" font-size="17" fill="#aeb7bd">spawn anchors / learned confidence</text>
  </g>
  <g transform="translate(540 630)">
    <rect x="0" y="0" width="420" height="170" rx="18" fill="#f5f7f3" opacity=".94"/>
    <text x="26" y="44" font-family="Arial, Helvetica, sans-serif" font-size="22" font-weight="700" fill="#111314">HUD owner model</text>
    <rect x="28" y="76" width="88" height="54" rx="10" fill="#008c8c"/>
    <rect x="136" y="76" width="88" height="54" rx="10" fill="#d6a13a"/>
    <rect x="244" y="76" width="88" height="54" rx="10" fill="#3f6fb5"/>
    <text x="28" y="148" font-family="Arial, Helvetica, sans-serif" font-size="16" fill="#68717a">one visible job per addon</text>
  </g>
  <g transform="translate(150 210)" opacity=".92">
    <path d="M98 104c0-38 29-68 65-68h190c36 0 65 30 65 68l22 102c10 45-24 86-70 86-28 0-48-13-65-39l-20-31H231l-20 31c-17 26-37 39-65 39-46 0-80-41-70-86z" fill="#f5f7f3"/>
    <circle cx="182" cy="142" r="32" fill="#111314"/>
    <rect x="171" y="92" width="22" height="78" rx="7" fill="#111314"/>
    <rect x="143" y="120" width="78" height="22" rx="7" fill="#111314"/>
    <circle cx="336" cy="112" r="18" fill="#c95555"/>
    <circle cx="374" cy="148" r="18" fill="#b8f33f"/>
    <circle cx="300" cy="148" r="18" fill="#3f6fb5"/>
    <circle cx="336" cy="184" r="18" fill="#d6a13a"/>
  </g>
</svg>
