<svg xmlns="http://www.w3.org/2000/svg" viewBox="0 0 1120 260" role="img" aria-labelledby="title desc">
  <title id="title">zFeder wordmark</title>
  <desc id="desc">Horizontal zFeder logo with icon and wordmark.</desc>
  <defs>
    <linearGradient id="cyan" x1="34" y1="192" x2="164" y2="64" gradientUnits="userSpaceOnUse">
      <stop offset="0" stop-color="#0097bd"/>
      <stop offset="1" stop-color="#18d7ee"/>
    </linearGradient>
    <linearGradient id="panel" x1="38" y1="30" x2="218" y2="232" gradientUnits="userSpaceOnUse">
      <stop offset="0" stop-color="#061018"/>
      <stop offset="1" stop-color="#02070b"/>
    </linearGradient>
  </defs>
  <g>
    <rect x="18" y="18" width="220" height="220" rx="36" fill="url(#panel)"/>
    <path d="M56 92h110l-30 35H93l-13 16h72l-32 38H50l58-68H50z" fill="url(#cyan)"/>
    <path d="M142 64h62l-28 34h-53c-15 0-26 8-32 22l-1 3c18-10 39-16 63-17h39l-27 32h-30c-15 0-29 4-42 12l42 1-25 29H74l4-18c9-43 31-73 64-98z" fill="#ffffff"/>
    <path d="M82 170c23-37 54-58 93-63-38 15-67 37-89 66z" fill="#dfeff2"/>
  </g>
  <g font-family="Arial, Helvetica, sans-serif" font-weight="800">
    <text x="318" y="162" font-size="128" fill="#09b8d5">z</text>
    <text x="420" y="162" font-size="128" fill="#061018">Feder</text>
  </g>
</svg>
